<?xml version="1.0" standalone="no"?><!DOCTYPE svg PUBLIC "-//W3C//DTD SVG 1.1//EN" "http://www.w3.org/Graphics/SVG/1.1/DTD/svg11.dtd"><svg t="1604548675000" class="icon" viewBox="0 0 1024 1024" version="1.1" xmlns="http://www.w3.org/2000/svg" p-id="1011" xmlns:xlink="http://www.w3.org/1999/xlink" width="200" height="200"><defs><style type="text/css"></style></defs><path d="M674.7 901.6m-26.2 0a26.2 26.2 0 1 0 52.4 0 26.2 26.2 0 1 0-52.4 0Z" p-id="1012"></path><path d="M703.2 460.8c-2.4-5.5-5.5-10.5-9.5-15-8.6-9.6-21.1-14.9-34-14.5-14.1 0-27 5.9-34.1 14.8-3.8 4.4-6.9 9.4-9.3 14.7-22 36.6-61.3 59.2-104 59.7-43-0.3-82.7-23-104.8-59.8-2.2-4.9-5-9.4-8.5-13.5-16.6-20.1-53.9-19-68.5-1.6-4.2 4.7-7.5 10.1-9.9 15.9-22.4 36.7-62.2 59.2-105.2 59.3-22.9 0-42.5-4.3-58.3-12.8C103 478.9 78 414.8 98 356.8c0.3-1.1 0.6-2.1 0.8-3.2L187 144.1c1.8-5.4 7.2-21.7 34.6-21.7H805c11.2 0.6 30.6 2.6 37.5 23.1l82.4 206.7c0.3 1.5 0.7 2.9 1.1 4.1 19.8 57.6-4.5 121-57.8 150.6-16 8.9-36.1 13.4-59.3 13.5-43.3 0.1-83.3-22.5-105.7-59.6z" p-id="1013"></path><path d="M215.7 547.1c-27.3 0-51.1-5.4-70.8-16-65.6-35.3-95.6-111.8-71.7-182.2 0-0.2 0.1-0.4 0.1-0.5l0.5-2.5 88.7-211.1c11.7-33.5 42-38.6 59.1-38.6h584.9c31.5 1.8 51.9 15.3 60.5 40.1l83 208.3 0.5 2.2c0.1 0.6 0.3 1.1 0.4 1.6 23.6 69.5-5.8 145.7-70.1 181.3-19.9 11-44.1 16.7-71.9 16.8h-0.2c-51.1 0-99.1-26.6-126.3-69.7l-1.3-1.4-1.9-4.3c-1.3-3-3-5.7-5.1-8.1-3.2-3.6-8.1-5.8-13.4-5.6h-0.9c-7.1 0-12.1 3-13.7 5l-0.5 0.6c-2.1 2.5-3.9 5.3-5.3 8.3l-1.5 2.9c-26.8 44.7-74 71.7-126.1 72.4-52.2-0.3-100.9-28.1-127.5-72.5l-1.4-2.7c-1.2-2.7-2.8-5.1-4.6-7.4-2.8-3.4-8.7-5.5-15.1-5.5h-0.1c-7.4 0-12 2.6-13.1 3.9l-0.4 0.5c-2.3 2.6-4.1 5.5-5.4 8.6l-0.8 1.9-1.1 1.7c-27.4 44.9-75 71.7-127.5 72zM124 361.7c-0.2 0.9-0.5 1.8-0.7 2.6l-0.3 1c-16 46.2 3.7 96.5 46.7 119.6 12 6.4 27.5 9.7 45.9 9.7 33.5-0.1 64-17.1 81.9-45.3 3.4-7.6 7.9-14.5 13.3-20.8 11.9-14 31.7-22.4 53-22.4h0.2c22.3 0.1 42.5 8.9 55.2 24.3 4.5 5.4 8.4 11.4 11.4 17.8 17.4 28.2 48.6 45.8 81.8 46 32.9-0.4 63.1-17.5 80.6-45.8 3.3-6.9 7.4-13.4 12.3-19.2 12.3-15.1 32.4-24.1 53.8-24.2 20.6-0.6 40.1 7.9 53.9 23.2 5.5 6.2 9.8 13 13.2 20.2 17.5 28.3 48.9 45.7 82.2 45.7h0.2c18.8-0.1 34.6-3.5 46.7-10.3 42.2-23.4 61.4-73.5 45.7-119.1l-0.4-1.3c-0.3-1.1-0.6-2.3-1-3.5l-82.1-206.2c-0.7-2.2-1.5-4.5-13.4-5.2H221.7c-8.5 0-9 1.6-9.8 3.8l-0.7 1.9L124 361.7zM583.7 926.2H186.5c-52.6 0-95.4-42.8-95.4-95.4V593c0-14.5 11.7-26.2 26.2-26.2s26.2 11.7 26.2 26.2v237.8c0 23.7 19.3 43.1 43.1 43.1h397.2c14.5 0 26.2 11.7 26.2 26.2s-11.9 26.1-26.3 26.1zM837.6 926.2h-73.1c-14.5 0-26.2-11.7-26.2-26.2s11.7-26.2 26.2-26.2h73.1c23.7 0 43.1-19.3 43.1-43.1V593c0-14.5 11.7-26.2 26.2-26.2S933 578.6 933 593v237.8c0 52.6-42.8 95.4-95.4 95.4z" p-id="1014"></path><path d="M760 297.5H264c-14.5 0-26.2-11.7-26.2-26.2s11.7-26.2 26.2-26.2h496c14.5 0 26.2 11.7 26.2 26.2s-11.7 26.2-26.2 26.2z" p-id="1015"></path></svg>